<?xml version="1.0" standalone="no"?><!DOCTYPE svg PUBLIC "-//W3C//DTD SVG 1.1//EN" "http://www.w3.org/Graphics/SVG/1.1/DTD/svg11.dtd"><svg t="1769154595295" class="icon" viewBox="0 0 1024 1024" version="1.1" xmlns="http://www.w3.org/2000/svg" p-id="4322" xmlns:xlink="http://www.w3.org/1999/xlink" width="200" height="200"><path d="M174.242133 663.125333l-0.256 89.770667c0 12.629333 6.656 24.32 17.664 30.634667l296.618667 171.264a55.688533 55.688533 0 0 0 55.893333-0.085334l294.656-171.264a35.3792 35.3792 0 0 0 17.578667-30.378666l0.256-90.026667-312.149333 181.418667a55.688533 55.688533 0 0 1-55.893334 0.085333l-314.368-181.418667z" fill="#2B83B8" p-id="4323"></path><path d="M818.090667 722.926933c-3.242667 1.877333-5.888 6.485333-5.888 10.24 0 3.754667 2.645333 5.290667 5.973333 3.413334 3.242667-1.877333 5.888-6.485333 5.888-10.24 0-3.84-2.730667-5.376-5.973333-3.413334M818.090667 753.3056c-3.242667 1.877333-5.888 6.485333-5.888 10.24 0 3.754667 2.645333 5.290667 5.973333 3.413333 3.242667-1.877333 5.888-6.485333 5.888-10.24 0-3.754667-2.730667-5.290667-5.973333-3.413333" fill="#FFFFFF" opacity=".7" p-id="4324"></path><path d="M818.090667 753.3056c-3.242667 1.877333-5.888 6.485333-5.888 10.24 0 3.754667 2.645333 5.290667 5.973333 3.413333 3.242667-1.877333 5.888-6.485333 5.888-10.24 0-3.754667-2.730667-5.290667-5.973333-3.413333M792.832 738.030933c-3.242667 1.877333-5.888 6.485333-5.888 10.24 0 3.754667 2.645333 5.290667 5.973333 3.413334 3.242667-1.877333 5.888-6.485333 5.888-10.24 0-3.754667-2.645333-5.290667-5.973333-3.413334" fill="#FFFFFF" opacity=".7" p-id="4325"></path><path d="M792.832 738.030933c-3.242667 1.877333-5.888 6.485333-5.888 10.24 0 3.754667 2.645333 5.290667 5.973333 3.413334 3.242667-1.877333 5.888-6.485333 5.888-10.24 0-3.754667-2.645333-5.290667-5.973333-3.413334M792.832 768.494933c-3.242667 1.877333-5.888 6.485333-5.888 10.24 0 3.754667 2.645333 5.290667 5.973333 3.413334 3.242667-1.877333 5.888-6.485333 5.888-10.24 0-3.754667-2.645333-5.290667-5.973333-3.413334M767.658667 753.220267c-3.242667 1.877333-5.888 6.485333-5.888 10.24 0 3.754667 2.645333 5.290667 5.973333 3.413333 3.242667-1.877333 5.888-6.485333 5.888-10.24-0.085333-3.84-2.730667-5.290667-5.973333-3.413333M767.658667 783.684267c-3.242667 1.877333-5.888 6.485333-5.888 10.24 0 3.754667 2.645333 5.290667 5.973333 3.413333 3.242667-1.877333 5.888-6.485333 5.888-10.24-0.085333-3.84-2.730667-5.376-5.973333-3.413333" fill="#FFFFFF" opacity=".7" p-id="4326"></path><path d="M767.658667 783.684267c-3.242667 1.877333-5.888 6.485333-5.888 10.24 0 3.754667 2.645333 5.290667 5.973333 3.413333 3.242667-1.877333 5.888-6.485333 5.888-10.24-0.085333-3.84-2.730667-5.376-5.973333-3.413333M742.4 768.324267c-3.242667 1.877333-5.888 6.485333-5.888 10.24 0 3.754667 2.645333 5.290667 5.973333 3.413333 3.242667-1.877333 5.888-6.485333 5.888-10.24-0.085333-3.754667-2.730667-5.290667-5.973333-3.413333" fill="#FFFFFF" opacity=".7" p-id="4327"></path><path d="M742.4 768.324267c-3.242667 1.877333-5.888 6.485333-5.888 10.24 0 3.754667 2.645333 5.290667 5.973333 3.413333 3.242667-1.877333 5.888-6.485333 5.888-10.24-0.085333-3.754667-2.730667-5.290667-5.973333-3.413333M742.4 798.788267c-3.242667 1.877333-5.888 6.485333-5.888 10.24 0 3.754667 2.645333 5.290667 5.973333 3.413333 3.242667-1.877333 5.888-6.485333 5.888-10.24-0.085333-3.754667-2.730667-5.290667-5.973333-3.413333" fill="#FFFFFF" opacity=".7" p-id="4328"></path><path d="M742.4 798.788267c-3.242667 1.877333-5.888 6.485333-5.888 10.24 0 3.754667 2.645333 5.290667 5.973333 3.413333 3.242667-1.877333 5.888-6.485333 5.888-10.24-0.085333-3.754667-2.730667-5.290667-5.973333-3.413333M717.141333 783.5136c-3.242667 1.877333-5.888 6.485333-5.888 10.24 0 3.754667 2.645333 5.290667 5.973334 3.413333 3.242667-1.877333 5.888-6.485333 5.888-10.24 0-3.754667-2.730667-5.290667-5.973334-3.413333" fill="#FFFFFF" opacity=".7" p-id="4329"></path><path d="M717.141333 783.5136c-3.242667 1.877333-5.888 6.485333-5.888 10.24 0 3.754667 2.645333 5.290667 5.973334 3.413333 3.242667-1.877333 5.888-6.485333 5.888-10.24 0-3.754667-2.730667-5.290667-5.973334-3.413333M717.141333 813.9776c-3.242667 1.877333-5.888 6.485333-5.888 10.24 0 3.754667 2.645333 5.290667 5.973334 3.413333 3.242667-1.877333 5.888-6.485333 5.888-10.24 0-3.754667-2.730667-5.290667-5.973334-3.413333M641.450667 828.996267c-3.242667 1.877333-5.888 6.485333-5.888 10.24 0 3.754667 2.645333 5.290667 5.973333 3.413333 3.242667-1.877333 5.888-6.485333 5.888-10.24-0.085333-3.754667-2.730667-5.290667-5.973333-3.413333" fill="#FFFFFF" opacity=".7" p-id="4330"></path><path d="M641.450667 828.996267c-3.242667 1.877333-5.888 6.485333-5.888 10.24 0 3.754667 2.645333 5.290667 5.973333 3.413333 3.242667-1.877333 5.888-6.485333 5.888-10.24-0.085333-3.754667-2.730667-5.290667-5.973333-3.413333M641.450667 859.460267c-3.242667 1.877333-5.888 6.485333-5.888 10.24 0 3.754667 2.645333 5.290667 5.973333 3.413333 3.242667-1.877333 5.888-6.485333 5.888-10.24-0.085333-3.84-2.730667-5.290667-5.973333-3.413333M691.882667 798.702933c-3.242667 1.877333-5.888 6.485333-5.888 10.24 0 3.754667 2.645333 5.290667 5.973333 3.413334 3.242667-1.877333 5.888-6.485333 5.888-10.24 0-3.84-2.645333-5.376-5.973333-3.413334" fill="#FFFFFF" opacity=".7" p-id="4331"></path><path d="M691.882667 829.0816c-3.242667 1.877333-5.888 6.485333-5.888 10.24 0 3.754667 2.645333 5.290667 5.973333 3.413333 3.242667-1.877333 5.888-6.485333 5.888-10.24 0-3.754667-2.645333-5.290667-5.973333-3.413333" fill="#FFFFFF" opacity=".7" p-id="4332"></path><path d="M691.882667 829.0816c-3.242667 1.877333-5.888 6.485333-5.888 10.24 0 3.754667 2.645333 5.290667 5.973333 3.413333 3.242667-1.877333 5.888-6.485333 5.888-10.24 0-3.754667-2.645333-5.290667-5.973333-3.413333" fill="#FFFFFF" opacity=".7" p-id="4333"></path><path d="M616.192 844.100267c-3.242667 1.877333-5.888 6.485333-5.888 10.24 0 3.754667 2.645333 5.290667 5.973333 3.413333 3.242667-1.877333 5.888-6.485333 5.888-10.24-0.085333-3.754667-2.730667-5.290667-5.973333-3.413333" fill="#FFFFFF" opacity=".7" p-id="4334"></path><path d="M616.192 844.100267c-3.242667 1.877333-5.888 6.485333-5.888 10.24 0 3.754667 2.645333 5.290667 5.973333 3.413333 3.242667-1.877333 5.888-6.485333 5.888-10.24-0.085333-3.754667-2.730667-5.290667-5.973333-3.413333" fill="#FFFFFF" opacity=".7" p-id="4335"></path><path d="M616.192 874.564267c-3.242667 1.877333-5.888 6.485333-5.888 10.24 0 3.754667 2.645333 5.290667 5.973333 3.413333 3.242667-1.877333 5.888-6.485333 5.888-10.24-0.085333-3.754667-2.730667-5.290667-5.973333-3.413333M565.674667 874.478933c-3.242667 1.877333-5.888 6.485333-5.888 10.24 0 3.754667 2.645333 5.290667 5.973333 3.413334 3.242667-1.877333 5.888-6.485333 5.888-10.24 0-3.84-2.645333-5.290667-5.973333-3.413334" fill="#FFFFFF" opacity=".7" p-id="4336"></path><path d="M565.751467 904.874667c-3.242667 1.877333-5.888 6.485333-5.888 10.24 0 3.754667 2.645333 5.290667 5.973333 3.413333 3.242667-1.877333 5.888-6.485333 5.888-10.24-0.085333-3.754667-2.730667-5.290667-5.973333-3.413333" fill="#FFFFFF" opacity=".7" p-id="4337"></path><path d="M565.751467 904.874667c-3.242667 1.877333-5.888 6.485333-5.888 10.24 0 3.754667 2.645333 5.290667 5.973333 3.413333 3.242667-1.877333 5.888-6.485333 5.888-10.24-0.085333-3.754667-2.730667-5.290667-5.973333-3.413333" fill="#FFFFFF" opacity=".7" p-id="4338"></path><path d="M666.7008 813.824c-3.242667 1.877333-5.888 6.485333-5.888 10.24 0 3.754667 2.645333 5.290667 5.973333 3.413333 3.242667-1.877333 5.888-6.485333 5.888-10.24-0.085333-3.754667-2.730667-5.290667-5.973333-3.413333" fill="#FFFFFF" opacity=".8" p-id="4339"></path><path d="M666.7008 844.288c-3.242667 1.877333-5.888 6.485333-5.888 10.24s2.645333 5.290667 5.973333 3.413333c3.242667-1.877333 5.888-6.485333 5.888-10.24-0.085333-3.754667-2.730667-5.290667-5.973333-3.413333" fill="#FFFFFF" opacity=".7" p-id="4340"></path><path d="M666.7008 844.288c-3.242667 1.877333-5.888 6.485333-5.888 10.24s2.645333 5.290667 5.973333 3.413333c3.242667-1.877333 5.888-6.485333 5.888-10.24-0.085333-3.754667-2.730667-5.290667-5.973333-3.413333" fill="#FFFFFF" opacity=".7" p-id="4341"></path><path d="M590.9248 859.306667c-3.242667 1.877333-5.888 6.485333-5.888 10.24s2.645333 5.290667 5.973333 3.413333c3.242667-1.877333 5.888-6.485333 5.888-10.24s-2.645333-5.290667-5.973333-3.413333" fill="#FFFFFF" opacity=".7" p-id="4342"></path><path d="M590.9248 859.306667c-3.242667 1.877333-5.888 6.485333-5.888 10.24s2.645333 5.290667 5.973333 3.413333c3.242667-1.877333 5.888-6.485333 5.888-10.24s-2.645333-5.290667-5.973333-3.413333" fill="#FFFFFF" opacity=".7" p-id="4343"></path><path d="M590.9248 889.770667c-3.242667 1.877333-5.888 6.485333-5.888 10.24s2.645333 5.290667 5.973333 3.413333c3.242667-1.877333 5.888-6.485333 5.888-10.24 0-3.84-2.645333-5.290667-5.973333-3.413333" fill="#FFFFFF" opacity=".8" p-id="4344"></path><path d="M205.986133 730.026667v23.722666c0 6.058667 3.242667 11.605333 8.448 14.592a5.6576 5.6576 0 0 0 8.448-4.864v-23.722666c0-6.058667-3.242667-11.605333-8.448-14.592a5.6576 5.6576 0 0 0-8.448 4.864z" fill="#FFFFFF" opacity=".8" p-id="4345"></path><path d="M205.986133 730.026667v23.722666c0 6.058667 3.242667 11.605333 8.448 14.592a5.6576 5.6576 0 0 0 8.448-4.864v-23.722666c0-6.058667-3.242667-11.605333-8.448-14.592a5.6576 5.6576 0 0 0-8.448 4.864z" fill="#FFFFFF" opacity=".8" p-id="4346"></path><path d="M205.986133 730.026667v23.722666c0 6.058667 3.242667 11.605333 8.448 14.592a5.6576 5.6576 0 0 0 8.448-4.864v-23.722666c0-6.058667-3.242667-11.605333-8.448-14.592a5.6576 5.6576 0 0 0-8.448 4.864z" fill="#FFFFFF" opacity=".8" p-id="4347"></path><path d="M255.650133 758.954667v23.722666c0 6.058667 3.242667 11.605333 8.448 14.592a5.6576 5.6576 0 0 0 8.448-4.864v-23.722666c0-6.058667-3.242667-11.605333-8.448-14.592a5.6576 5.6576 0 0 0-8.448 4.864z" fill="#FFFFFF" opacity=".8" p-id="4348"></path><path d="M255.650133 758.954667v23.722666c0 6.058667 3.242667 11.605333 8.448 14.592a5.6576 5.6576 0 0 0 8.448-4.864v-23.722666c0-6.058667-3.242667-11.605333-8.448-14.592a5.6576 5.6576 0 0 0-8.448 4.864z" fill="#FFFFFF" opacity=".8" p-id="4349"></path><path d="M255.650133 758.954667v23.722666c0 6.058667 3.242667 11.605333 8.448 14.592a5.6576 5.6576 0 0 0 8.448-4.864v-23.722666c0-6.058667-3.242667-11.605333-8.448-14.592a5.6576 5.6576 0 0 0-8.448 4.864z" fill="#FFFFFF" opacity=".8" p-id="4350"></path><path d="M305.2288 787.797333v23.722667c0 6.058667 3.242667 11.605333 8.448 14.592a5.6576 5.6576 0 0 0 8.448-4.864v-23.722667c0-6.058667-3.242667-11.605333-8.448-14.592a5.6576 5.6576 0 0 0-8.448 4.864z" fill="#FFFFFF" opacity=".8" p-id="4351"></path><path d="M305.2288 787.797333v23.722667c0 6.058667 3.242667 11.605333 8.448 14.592a5.6576 5.6576 0 0 0 8.448-4.864v-23.722667c0-6.058667-3.242667-11.605333-8.448-14.592a5.6576 5.6576 0 0 0-8.448 4.864z" fill="#FFFFFF" opacity=".8" p-id="4352"></path><path d="M305.2288 787.797333v23.722667c0 6.058667 3.242667 11.605333 8.448 14.592a5.6576 5.6576 0 0 0 8.448-4.864v-23.722667c0-6.058667-3.242667-11.605333-8.448-14.592a5.6576 5.6576 0 0 0-8.448 4.864z" fill="#FFFFFF" opacity=".8" p-id="4353"></path><path d="M354.8928 816.725333v23.722667c0 6.058667 3.242667 11.605333 8.448 14.592a5.6576 5.6576 0 0 0 8.448-4.864v-23.722667c0-6.058667-3.242667-11.605333-8.448-14.592a5.6576 5.6576 0 0 0-8.448 4.864z" fill="#FFFFFF" opacity=".8" p-id="4354"></path><path d="M354.8928 816.725333v23.722667c0 6.058667 3.242667 11.605333 8.448 14.592a5.6576 5.6576 0 0 0 8.448-4.864v-23.722667c0-6.058667-3.242667-11.605333-8.448-14.592a5.6576 5.6576 0 0 0-8.448 4.864z" fill="#FFFFFF" opacity=".8" p-id="4355"></path><path d="M354.8928 816.725333v23.722667c0 6.058667 3.242667 11.605333 8.448 14.592a5.6576 5.6576 0 0 0 8.448-4.864v-23.722667c0-6.058667-3.242667-11.605333-8.448-14.592a5.6576 5.6576 0 0 0-8.448 4.864z" fill="#FFFFFF" opacity=".8" p-id="4356"></path><path d="M404.5568 845.653333v23.722667c0 6.058667 3.242667 11.605333 8.448 14.592a5.6576 5.6576 0 0 0 8.448-4.864v-23.722667c0-6.058667-3.242667-11.605333-8.448-14.592a5.6576 5.6576 0 0 0-8.448 4.864z" fill="#FFFFFF" opacity=".8" p-id="4357"></path><path d="M404.5568 845.653333v23.722667c0 6.058667 3.242667 11.605333 8.448 14.592a5.6576 5.6576 0 0 0 8.448-4.864v-23.722667c0-6.058667-3.242667-11.605333-8.448-14.592a5.6576 5.6576 0 0 0-8.448 4.864z" fill="#FFFFFF" opacity=".8" p-id="4358"></path><path d="M404.5568 845.653333v23.722667c0 6.058667 3.242667 11.605333 8.448 14.592a5.6576 5.6576 0 0 0 8.448-4.864v-23.722667c0-6.058667-3.242667-11.605333-8.448-14.592a5.6576 5.6576 0 0 0-8.448 4.864z" fill="#FFFFFF" opacity=".8" p-id="4359"></path><path d="M454.135467 874.581333v23.722667c0 6.058667 3.242667 11.605333 8.448 14.592a5.6576 5.6576 0 0 0 8.448-4.864v-23.722667c0-6.058667-3.242667-11.605333-8.448-14.592a5.6576 5.6576 0 0 0-8.448 4.864z" fill="#FFFFFF" opacity=".8" p-id="4360"></path><path d="M454.135467 874.581333v23.722667c0 6.058667 3.242667 11.605333 8.448 14.592a5.6576 5.6576 0 0 0 8.448-4.864v-23.722667c0-6.058667-3.242667-11.605333-8.448-14.592a5.6576 5.6576 0 0 0-8.448 4.864z" fill="#FFFFFF" opacity=".8" p-id="4361"></path><path d="M454.135467 874.581333v23.722667c0 6.058667 3.242667 11.605333 8.448 14.592a5.6576 5.6576 0 0 0 8.448-4.864v-23.722667c0-6.058667-3.242667-11.605333-8.448-14.592a5.6576 5.6576 0 0 0-8.448 4.864z" fill="#FFFFFF" opacity=".8" p-id="4362"></path><path d="M847.872 678.229333l-301.994667 175.530667a58.504533 58.504533 0 0 1-58.624 0.085333L183.04 678.229333c-11.690667-6.741333-11.690667-23.637333 0-30.378666l301.994667-175.530667a58.504533 58.504533 0 0 1 58.624-0.085333l304.213333 175.616c11.605333 6.741333 11.605333 23.552 0 30.378666" fill="#56C2E6" p-id="4363"></path><path d="M847.872 678.229333l-301.994667 175.530667a58.504533 58.504533 0 0 1-58.624 0.085333L183.04 678.229333c-11.690667-6.741333-11.690667-23.637333 0-30.378666l301.994667-175.530667a58.504533 58.504533 0 0 1 58.624-0.085333l304.213333 175.616c11.605333 6.741333 11.605333 23.552 0 30.378666" fill="#56C2E6" fill-opacity=".12" p-id="4364"></path><path d="M847.872 678.229333l-301.994667 175.530667a58.504533 58.504533 0 0 1-58.624 0.085333L183.04 678.229333c-11.690667-6.741333-11.690667-23.637333 0-30.378666l301.994667-175.530667a58.504533 58.504533 0 0 1 58.624-0.085333l304.213333 175.616c11.605333 6.741333 11.605333 23.552 0 30.378666" fill="#56C2E6" fill-opacity=".3" p-id="4365"></path><path d="M174.327467 525.653333l-0.256 89.770667c0 12.629333 6.656 24.32 17.664 30.634667l296.618666 171.264a55.688533 55.688533 0 0 0 55.893334-0.085334l294.656-171.264a35.3792 35.3792 0 0 0 17.578666-30.378666l0.256-90.026667-312.149333 181.418667a55.688533 55.688533 0 0 1-55.893333 0.085333L174.327467 525.653333z" fill="#2B83B8" p-id="4366"></path><path d="M818.176 585.454933c-3.242667 1.877333-5.888 6.485333-5.888 10.24s2.645333 5.290667 5.973333 3.413334c3.242667-1.877333 5.888-6.485333 5.888-10.24 0-3.84-2.730667-5.376-5.973333-3.413334M818.176 615.8336c-3.242667 1.877333-5.888 6.485333-5.888 10.24s2.645333 5.290667 5.973333 3.413333c3.242667-1.877333 5.888-6.485333 5.888-10.24 0-3.754667-2.730667-5.290667-5.973333-3.413333" fill="#FFFFFF" opacity=".7" p-id="4367"></path><path d="M818.176 615.8336c-3.242667 1.877333-5.888 6.485333-5.888 10.24s2.645333 5.290667 5.973333 3.413333c3.242667-1.877333 5.888-6.485333 5.888-10.24 0-3.754667-2.730667-5.290667-5.973333-3.413333M792.917333 600.558933c-3.242667 1.877333-5.888 6.485333-5.888 10.24 0 3.754667 2.645333 5.290667 5.973334 3.413334 3.242667-1.877333 5.888-6.485333 5.888-10.24 0-3.754667-2.645333-5.290667-5.973334-3.413334" fill="#FFFFFF" opacity=".7" p-id="4368"></path><path d="M792.917333 600.558933c-3.242667 1.877333-5.888 6.485333-5.888 10.24 0 3.754667 2.645333 5.290667 5.973334 3.413334 3.242667-1.877333 5.888-6.485333 5.888-10.24 0-3.754667-2.645333-5.290667-5.973334-3.413334M792.917333 631.022933c-3.242667 1.877333-5.888 6.485333-5.888 10.24s2.645333 5.290667 5.973334 3.413334c3.242667-1.877333 5.888-6.485333 5.888-10.24s-2.645333-5.290667-5.973334-3.413334M767.744 615.748267c-3.242667 1.877333-5.888 6.485333-5.888 10.24 0 3.754667 2.645333 5.290667 5.973333 3.413333 3.242667-1.877333 5.888-6.485333 5.888-10.24-0.085333-3.84-2.730667-5.290667-5.973333-3.413333M767.744 646.212267c-3.242667 1.877333-5.888 6.485333-5.888 10.24 0 3.754667 2.645333 5.290667 5.973333 3.413333 3.242667-1.877333 5.888-6.485333 5.888-10.24-0.085333-3.84-2.730667-5.376-5.973333-3.413333" fill="#FFFFFF" opacity=".7" p-id="4369"></path><path d="M767.744 646.212267c-3.242667 1.877333-5.888 6.485333-5.888 10.24 0 3.754667 2.645333 5.290667 5.973333 3.413333 3.242667-1.877333 5.888-6.485333 5.888-10.24-0.085333-3.84-2.730667-5.376-5.973333-3.413333M742.485333 630.852267c-3.242667 1.877333-5.888 6.485333-5.888 10.24 0 3.754667 2.645333 5.290667 5.973334 3.413333 3.242667-1.877333 5.888-6.485333 5.888-10.24-0.085333-3.754667-2.730667-5.290667-5.973334-3.413333" fill="#FFFFFF" opacity=".7" p-id="4370"></path><path d="M742.485333 630.852267c-3.242667 1.877333-5.888 6.485333-5.888 10.24 0 3.754667 2.645333 5.290667 5.973334 3.413333 3.242667-1.877333 5.888-6.485333 5.888-10.24-0.085333-3.754667-2.730667-5.290667-5.973334-3.413333M742.485333 661.316267c-3.242667 1.877333-5.888 6.485333-5.888 10.24 0 3.754667 2.645333 5.290667 5.973334 3.413333 3.242667-1.877333 5.888-6.485333 5.888-10.24-0.085333-3.754667-2.730667-5.290667-5.973334-3.413333" fill="#FFFFFF" opacity=".7" p-id="4371"></path><path d="M742.485333 661.316267c-3.242667 1.877333-5.888 6.485333-5.888 10.24 0 3.754667 2.645333 5.290667 5.973334 3.413333 3.242667-1.877333 5.888-6.485333 5.888-10.24-0.085333-3.754667-2.730667-5.290667-5.973334-3.413333M717.226667 646.0416c-3.242667 1.877333-5.888 6.485333-5.888 10.24 0 3.754667 2.645333 5.290667 5.973333 3.413333 3.242667-1.877333 5.888-6.485333 5.888-10.24 0-3.754667-2.730667-5.290667-5.973333-3.413333" fill="#FFFFFF" opacity=".7" p-id="4372"></path><path d="M717.226667 646.0416c-3.242667 1.877333-5.888 6.485333-5.888 10.24 0 3.754667 2.645333 5.290667 5.973333 3.413333 3.242667-1.877333 5.888-6.485333 5.888-10.24 0-3.754667-2.730667-5.290667-5.973333-3.413333M717.226667 676.5056c-3.242667 1.877333-5.888 6.485333-5.888 10.24 0 3.754667 2.645333 5.290667 5.973333 3.413333 3.242667-1.877333 5.888-6.485333 5.888-10.24 0-3.754667-2.730667-5.290667-5.973333-3.413333M641.536 691.524267c-3.242667 1.877333-5.888 6.485333-5.888 10.24 0 3.754667 2.645333 5.290667 5.973333 3.413333 3.242667-1.877333 5.888-6.485333 5.888-10.24-0.085333-3.754667-2.730667-5.290667-5.973333-3.413333" fill="#FFFFFF" opacity=".7" p-id="4373"></path><path d="M641.536 691.524267c-3.242667 1.877333-5.888 6.485333-5.888 10.24 0 3.754667 2.645333 5.290667 5.973333 3.413333 3.242667-1.877333 5.888-6.485333 5.888-10.24-0.085333-3.754667-2.730667-5.290667-5.973333-3.413333M641.536 721.988267c-3.242667 1.877333-5.888 6.485333-5.888 10.24 0 3.754667 2.645333 5.290667 5.973333 3.413333 3.242667-1.877333 5.888-6.485333 5.888-10.24-0.085333-3.84-2.730667-5.290667-5.973333-3.413333M691.968 661.230933c-3.242667 1.877333-5.888 6.485333-5.888 10.24 0 3.754667 2.645333 5.290667 5.973333 3.413334 3.242667-1.877333 5.888-6.485333 5.888-10.24 0-3.84-2.645333-5.376-5.973333-3.413334" fill="#FFFFFF" opacity=".7" p-id="4374"></path><path d="M691.968 691.6096c-3.242667 1.877333-5.888 6.485333-5.888 10.24 0 3.754667 2.645333 5.290667 5.973333 3.413333 3.242667-1.877333 5.888-6.485333 5.888-10.24 0-3.754667-2.645333-5.290667-5.973333-3.413333" fill="#FFFFFF" opacity=".7" p-id="4375"></path><path d="M691.968 691.6096c-3.242667 1.877333-5.888 6.485333-5.888 10.24 0 3.754667 2.645333 5.290667 5.973333 3.413333 3.242667-1.877333 5.888-6.485333 5.888-10.24 0-3.754667-2.645333-5.290667-5.973333-3.413333" fill="#FFFFFF" opacity=".7" p-id="4376"></path><path d="M616.277333 706.628267c-3.242667 1.877333-5.888 6.485333-5.888 10.24 0 3.754667 2.645333 5.290667 5.973334 3.413333 3.242667-1.877333 5.888-6.485333 5.888-10.24-0.085333-3.754667-2.730667-5.290667-5.973334-3.413333" fill="#FFFFFF" opacity=".7" p-id="4377"></path><path d="M616.277333 706.628267c-3.242667 1.877333-5.888 6.485333-5.888 10.24 0 3.754667 2.645333 5.290667 5.973334 3.413333 3.242667-1.877333 5.888-6.485333 5.888-10.24-0.085333-3.754667-2.730667-5.290667-5.973334-3.413333" fill="#FFFFFF" opacity=".7" p-id="4378"></path><path d="M616.277333 737.092267c-3.242667 1.877333-5.888 6.485333-5.888 10.24 0 3.754667 2.645333 5.290667 5.973334 3.413333 3.242667-1.877333 5.888-6.485333 5.888-10.24-0.085333-3.754667-2.730667-5.290667-5.973334-3.413333M565.76 737.006933c-3.242667 1.877333-5.888 6.485333-5.888 10.24 0 3.754667 2.645333 5.290667 5.973333 3.413334 3.242667-1.877333 5.888-6.485333 5.888-10.24 0-3.84-2.645333-5.290667-5.973333-3.413334" fill="#FFFFFF" opacity=".7" p-id="4379"></path><path d="M565.8368 767.402667c-3.242667 1.877333-5.888 6.485333-5.888 10.24s2.645333 5.290667 5.973333 3.413333c3.242667-1.877333 5.888-6.485333 5.888-10.24-0.085333-3.754667-2.730667-5.290667-5.973333-3.413333" fill="#FFFFFF" opacity=".7" p-id="4380"></path><path d="M565.8368 767.402667c-3.242667 1.877333-5.888 6.485333-5.888 10.24s2.645333 5.290667 5.973333 3.413333c3.242667-1.877333 5.888-6.485333 5.888-10.24-0.085333-3.754667-2.730667-5.290667-5.973333-3.413333" fill="#FFFFFF" opacity=".7" p-id="4381"></path><path d="M666.786133 676.352c-3.242667 1.877333-5.888 6.485333-5.888 10.24s2.645333 5.290667 5.973334 3.413333c3.242667-1.877333 5.888-6.485333 5.888-10.24-0.085333-3.754667-2.730667-5.290667-5.973334-3.413333" fill="#FFFFFF" opacity=".8" p-id="4382"></path><path d="M666.786133 706.816c-3.242667 1.877333-5.888 6.485333-5.888 10.24 0 3.754667 2.645333 5.290667 5.973334 3.413333 3.242667-1.877333 5.888-6.485333 5.888-10.24-0.085333-3.754667-2.730667-5.290667-5.973334-3.413333" fill="#FFFFFF" opacity=".7" p-id="4383"></path><path d="M666.786133 706.816c-3.242667 1.877333-5.888 6.485333-5.888 10.24 0 3.754667 2.645333 5.290667 5.973334 3.413333 3.242667-1.877333 5.888-6.485333 5.888-10.24-0.085333-3.754667-2.730667-5.290667-5.973334-3.413333" fill="#FFFFFF" opacity=".7" p-id="4384"></path><path d="M591.010133 721.834667c-3.242667 1.877333-5.888 6.485333-5.888 10.24s2.645333 5.290667 5.973334 3.413333c3.242667-1.877333 5.888-6.485333 5.888-10.24 0-3.754667-2.645333-5.290667-5.973334-3.413333" fill="#FFFFFF" opacity=".7" p-id="4385"></path><path d="M591.010133 721.834667c-3.242667 1.877333-5.888 6.485333-5.888 10.24s2.645333 5.290667 5.973334 3.413333c3.242667-1.877333 5.888-6.485333 5.888-10.24 0-3.754667-2.645333-5.290667-5.973334-3.413333" fill="#FFFFFF" opacity=".7" p-id="4386"></path><path d="M591.010133 752.298667c-3.242667 1.877333-5.888 6.485333-5.888 10.24 0 3.754667 2.645333 5.290667 5.973334 3.413333 3.242667-1.877333 5.888-6.485333 5.888-10.24 0-3.84-2.645333-5.290667-5.973334-3.413333" fill="#FFFFFF" opacity=".8" p-id="4387"></path><path d="M206.071467 592.554667v23.722666c0 6.058667 3.242667 11.605333 8.448 14.592a5.6576 5.6576 0 0 0 8.448-4.864v-23.722666c0-6.058667-3.242667-11.605333-8.448-14.592a5.6576 5.6576 0 0 0-8.448 4.864z" fill="#FFFFFF" opacity=".8" p-id="4388"></path><path d="M206.071467 592.554667v23.722666c0 6.058667 3.242667 11.605333 8.448 14.592a5.6576 5.6576 0 0 0 8.448-4.864v-23.722666c0-6.058667-3.242667-11.605333-8.448-14.592a5.6576 5.6576 0 0 0-8.448 4.864z" fill="#FFFFFF" opacity=".8" p-id="4389"></path><path d="M206.071467 592.554667v23.722666c0 6.058667 3.242667 11.605333 8.448 14.592a5.6576 5.6576 0 0 0 8.448-4.864v-23.722666c0-6.058667-3.242667-11.605333-8.448-14.592a5.6576 5.6576 0 0 0-8.448 4.864z" fill="#FFFFFF" opacity=".8" p-id="4390"></path><path d="M255.735467 621.482667v23.722666c0 6.058667 3.242667 11.605333 8.448 14.592a5.6576 5.6576 0 0 0 8.448-4.864v-23.722666c0-6.058667-3.242667-11.605333-8.448-14.592a5.6576 5.6576 0 0 0-8.448 4.864z" fill="#FFFFFF" opacity=".8" p-id="4391"></path><path d="M255.735467 621.482667v23.722666c0 6.058667 3.242667 11.605333 8.448 14.592a5.6576 5.6576 0 0 0 8.448-4.864v-23.722666c0-6.058667-3.242667-11.605333-8.448-14.592a5.6576 5.6576 0 0 0-8.448 4.864z" fill="#FFFFFF" opacity=".8" p-id="4392"></path><path d="M255.735467 621.482667v23.722666c0 6.058667 3.242667 11.605333 8.448 14.592a5.6576 5.6576 0 0 0 8.448-4.864v-23.722666c0-6.058667-3.242667-11.605333-8.448-14.592a5.6576 5.6576 0 0 0-8.448 4.864z" fill="#FFFFFF" opacity=".8" p-id="4393"></path><path d="M305.314133 650.325333v23.722667c0 6.058667 3.242667 11.605333 8.448 14.592a5.6576 5.6576 0 0 0 8.448-4.864v-23.722667c0-6.058667-3.242667-11.605333-8.448-14.592a5.6576 5.6576 0 0 0-8.448 4.864z" fill="#FFFFFF" opacity=".8" p-id="4394"></path><path d="M305.314133 650.325333v23.722667c0 6.058667 3.242667 11.605333 8.448 14.592a5.6576 5.6576 0 0 0 8.448-4.864v-23.722667c0-6.058667-3.242667-11.605333-8.448-14.592a5.6576 5.6576 0 0 0-8.448 4.864z" fill="#FFFFFF" opacity=".8" p-id="4395"></path><path d="M305.314133 650.325333v23.722667c0 6.058667 3.242667 11.605333 8.448 14.592a5.6576 5.6576 0 0 0 8.448-4.864v-23.722667c0-6.058667-3.242667-11.605333-8.448-14.592a5.6576 5.6576 0 0 0-8.448 4.864z" fill="#FFFFFF" opacity=".8" p-id="4396"></path><path d="M354.978133 679.253333v23.722667c0 6.058667 3.242667 11.605333 8.448 14.592a5.6576 5.6576 0 0 0 8.448-4.864v-23.722667c0-6.058667-3.242667-11.605333-8.448-14.592a5.6576 5.6576 0 0 0-8.448 4.864z" fill="#FFFFFF" opacity=".8" p-id="4397"></path><path d="M354.978133 679.253333v23.722667c0 6.058667 3.242667 11.605333 8.448 14.592a5.6576 5.6576 0 0 0 8.448-4.864v-23.722667c0-6.058667-3.242667-11.605333-8.448-14.592a5.6576 5.6576 0 0 0-8.448 4.864z" fill="#FFFFFF" opacity=".8" p-id="4398"></path><path d="M354.978133 679.253333v23.722667c0 6.058667 3.242667 11.605333 8.448 14.592a5.6576 5.6576 0 0 0 8.448-4.864v-23.722667c0-6.058667-3.242667-11.605333-8.448-14.592a5.6576 5.6576 0 0 0-8.448 4.864z" fill="#FFFFFF" opacity=".8" p-id="4399"></path><path d="M404.642133 708.181333v23.722667c0 6.058667 3.242667 11.605333 8.448 14.592a5.6576 5.6576 0 0 0 8.448-4.864v-23.722667c0-6.058667-3.242667-11.605333-8.448-14.592a5.6576 5.6576 0 0 0-8.448 4.864z" fill="#FFFFFF" opacity=".8" p-id="4400"></path><path d="M404.642133 708.181333v23.722667c0 6.058667 3.242667 11.605333 8.448 14.592a5.6576 5.6576 0 0 0 8.448-4.864v-23.722667c0-6.058667-3.242667-11.605333-8.448-14.592a5.6576 5.6576 0 0 0-8.448 4.864z" fill="#FFFFFF" opacity=".8" p-id="4401"></path><path d="M404.642133 708.181333v23.722667c0 6.058667 3.242667 11.605333 8.448 14.592a5.6576 5.6576 0 0 0 8.448-4.864v-23.722667c0-6.058667-3.242667-11.605333-8.448-14.592a5.6576 5.6576 0 0 0-8.448 4.864z" fill="#FFFFFF" opacity=".8" p-id="4402"></path><path d="M454.2208 737.109333v23.722667c0 6.058667 3.242667 11.605333 8.448 14.592a5.6576 5.6576 0 0 0 8.448-4.864v-23.722667c0-6.058667-3.242667-11.605333-8.448-14.592a5.6576 5.6576 0 0 0-8.448 4.864z" fill="#FFFFFF" opacity=".8" p-id="4403"></path><path d="M454.2208 737.109333v23.722667c0 6.058667 3.242667 11.605333 8.448 14.592a5.6576 5.6576 0 0 0 8.448-4.864v-23.722667c0-6.058667-3.242667-11.605333-8.448-14.592a5.6576 5.6576 0 0 0-8.448 4.864z" fill="#FFFFFF" opacity=".8" p-id="4404"></path><path d="M454.2208 737.109333v23.722667c0 6.058667 3.242667 11.605333 8.448 14.592a5.6576 5.6576 0 0 0 8.448-4.864v-23.722667c0-6.058667-3.242667-11.605333-8.448-14.592a5.6576 5.6576 0 0 0-8.448 4.864z" fill="#FFFFFF" opacity=".8" p-id="4405"></path><path d="M847.957333 540.757333L545.962667 716.288a58.504533 58.504533 0 0 1-58.624 0.085333L183.125333 540.757333c-11.690667-6.741333-11.690667-23.637333 0-30.378666l301.994667-175.530667a58.504533 58.504533 0 0 1 58.624-0.085333l304.213333 175.616c11.605333 6.741333 11.605333 23.552 0 30.378666" fill="#56C2E6" p-id="4406"></path><path d="M847.957333 540.757333L545.962667 716.288a58.504533 58.504533 0 0 1-58.624 0.085333L183.125333 540.757333c-11.690667-6.741333-11.690667-23.637333 0-30.378666l301.994667-175.530667a58.504533 58.504533 0 0 1 58.624-0.085333l304.213333 175.616c11.605333 6.741333 11.605333 23.552 0 30.378666" fill="#56C2E6" fill-opacity=".12" p-id="4407"></path><path d="M847.957333 540.757333L545.962667 716.288a58.504533 58.504533 0 0 1-58.624 0.085333L183.125333 540.757333c-11.690667-6.741333-11.690667-23.637333 0-30.378666l301.994667-175.530667a58.504533 58.504533 0 0 1 58.624-0.085333l304.213333 175.616c11.605333 6.741333 11.605333 23.552 0 30.378666" fill="#56C2E6" fill-opacity=".3" p-id="4408"></path><path d="M174.242133 381.866667l-0.256 89.770666c0 12.629333 6.656 24.32 17.664 30.634667l296.618667 171.264a55.688533 55.688533 0 0 0 55.893333-0.085333l294.656-171.264a35.3792 35.3792 0 0 0 17.578667-30.378667l0.256-90.026667L544.503467 563.2a55.688533 55.688533 0 0 1-55.893334 0.085333l-314.368-181.418666z" fill="#2B83B8" p-id="4409"></path><path d="M818.090667 441.668267c-3.242667 1.877333-5.888 6.485333-5.888 10.24 0 3.754667 2.645333 5.290667 5.973333 3.413333 3.242667-1.877333 5.888-6.485333 5.888-10.24 0-3.84-2.730667-5.376-5.973333-3.413333M818.090667 472.046933c-3.242667 1.877333-5.888 6.485333-5.888 10.24 0 3.754667 2.645333 5.290667 5.973333 3.413334 3.242667-1.877333 5.888-6.485333 5.888-10.24 0-3.754667-2.730667-5.290667-5.973333-3.413334" fill="#FFFFFF" opacity=".7" p-id="4410"></path><path d="M818.090667 472.046933c-3.242667 1.877333-5.888 6.485333-5.888 10.24 0 3.754667 2.645333 5.290667 5.973333 3.413334 3.242667-1.877333 5.888-6.485333 5.888-10.24 0-3.754667-2.730667-5.290667-5.973333-3.413334M792.832 456.772267c-3.242667 1.877333-5.888 6.485333-5.888 10.24s2.645333 5.290667 5.973333 3.413333c3.242667-1.877333 5.888-6.485333 5.888-10.24s-2.645333-5.290667-5.973333-3.413333" fill="#FFFFFF" opacity=".7" p-id="4411"></path><path d="M792.832 456.772267c-3.242667 1.877333-5.888 6.485333-5.888 10.24s2.645333 5.290667 5.973333 3.413333c3.242667-1.877333 5.888-6.485333 5.888-10.24s-2.645333-5.290667-5.973333-3.413333M792.832 487.236267c-3.242667 1.877333-5.888 6.485333-5.888 10.24 0 3.754667 2.645333 5.290667 5.973333 3.413333 3.242667-1.877333 5.888-6.485333 5.888-10.24 0-3.754667-2.645333-5.290667-5.973333-3.413333M767.658667 471.9616c-3.242667 1.877333-5.888 6.485333-5.888 10.24s2.645333 5.290667 5.973333 3.413333c3.242667-1.877333 5.888-6.485333 5.888-10.24-0.085333-3.84-2.730667-5.290667-5.973333-3.413333M767.658667 502.4256c-3.242667 1.877333-5.888 6.485333-5.888 10.24 0 3.754667 2.645333 5.290667 5.973333 3.413333 3.242667-1.877333 5.888-6.485333 5.888-10.24-0.085333-3.84-2.730667-5.376-5.973333-3.413333" fill="#FFFFFF" opacity=".7" p-id="4412"></path><path d="M767.658667 502.4256c-3.242667 1.877333-5.888 6.485333-5.888 10.24 0 3.754667 2.645333 5.290667 5.973333 3.413333 3.242667-1.877333 5.888-6.485333 5.888-10.24-0.085333-3.84-2.730667-5.376-5.973333-3.413333M742.4 487.0656c-3.242667 1.877333-5.888 6.485333-5.888 10.24s2.645333 5.290667 5.973333 3.413333c3.242667-1.877333 5.888-6.485333 5.888-10.24-0.085333-3.754667-2.730667-5.290667-5.973333-3.413333" fill="#FFFFFF" opacity=".7" p-id="4413"></path><path d="M742.4 487.0656c-3.242667 1.877333-5.888 6.485333-5.888 10.24s2.645333 5.290667 5.973333 3.413333c3.242667-1.877333 5.888-6.485333 5.888-10.24-0.085333-3.754667-2.730667-5.290667-5.973333-3.413333M742.4 517.5296c-3.242667 1.877333-5.888 6.485333-5.888 10.24 0 3.754667 2.645333 5.290667 5.973333 3.413333 3.242667-1.877333 5.888-6.485333 5.888-10.24-0.085333-3.754667-2.730667-5.290667-5.973333-3.413333" fill="#FFFFFF" opacity=".7" p-id="4414"></path><path d="M742.4 517.5296c-3.242667 1.877333-5.888 6.485333-5.888 10.24 0 3.754667 2.645333 5.290667 5.973333 3.413333 3.242667-1.877333 5.888-6.485333 5.888-10.24-0.085333-3.754667-2.730667-5.290667-5.973333-3.413333M717.141333 502.254933c-3.242667 1.877333-5.888 6.485333-5.888 10.24s2.645333 5.290667 5.973334 3.413334c3.242667-1.877333 5.888-6.485333 5.888-10.24s-2.730667-5.290667-5.973334-3.413334" fill="#FFFFFF" opacity=".7" p-id="4415"></path><path d="M717.141333 502.254933c-3.242667 1.877333-5.888 6.485333-5.888 10.24s2.645333 5.290667 5.973334 3.413334c3.242667-1.877333 5.888-6.485333 5.888-10.24s-2.730667-5.290667-5.973334-3.413334M717.141333 532.718933c-3.242667 1.877333-5.888 6.485333-5.888 10.24 0 3.754667 2.645333 5.290667 5.973334 3.413334 3.242667-1.877333 5.888-6.485333 5.888-10.24 0-3.754667-2.730667-5.290667-5.973334-3.413334M641.450667 547.7376c-3.242667 1.877333-5.888 6.485333-5.888 10.24s2.645333 5.290667 5.973333 3.413333c3.242667-1.877333 5.888-6.485333 5.888-10.24-0.085333-3.754667-2.730667-5.290667-5.973333-3.413333" fill="#FFFFFF" opacity=".7" p-id="4416"></path><path d="M641.450667 547.7376c-3.242667 1.877333-5.888 6.485333-5.888 10.24s2.645333 5.290667 5.973333 3.413333c3.242667-1.877333 5.888-6.485333 5.888-10.24-0.085333-3.754667-2.730667-5.290667-5.973333-3.413333M641.450667 578.2016c-3.242667 1.877333-5.888 6.485333-5.888 10.24 0 3.754667 2.645333 5.290667 5.973333 3.413333 3.242667-1.877333 5.888-6.485333 5.888-10.24-0.085333-3.84-2.730667-5.290667-5.973333-3.413333M691.882667 517.444267c-3.242667 1.877333-5.888 6.485333-5.888 10.24s2.645333 5.290667 5.973333 3.413333c3.242667-1.877333 5.888-6.485333 5.888-10.24 0-3.84-2.645333-5.376-5.973333-3.413333" fill="#FFFFFF" opacity=".7" p-id="4417"></path><path d="M691.882667 547.822933c-3.242667 1.877333-5.888 6.485333-5.888 10.24s2.645333 5.290667 5.973333 3.413334c3.242667-1.877333 5.888-6.485333 5.888-10.24 0-3.754667-2.645333-5.290667-5.973333-3.413334" fill="#FFFFFF" opacity=".7" p-id="4418"></path><path d="M691.882667 547.822933c-3.242667 1.877333-5.888 6.485333-5.888 10.24s2.645333 5.290667 5.973333 3.413334c3.242667-1.877333 5.888-6.485333 5.888-10.24 0-3.754667-2.645333-5.290667-5.973333-3.413334" fill="#FFFFFF" opacity=".7" p-id="4419"></path><path d="M616.192 562.8416c-3.242667 1.877333-5.888 6.485333-5.888 10.24 0 3.754667 2.645333 5.290667 5.973333 3.413333 3.242667-1.877333 5.888-6.485333 5.888-10.24-0.085333-3.754667-2.730667-5.290667-5.973333-3.413333" fill="#FFFFFF" opacity=".7" p-id="4420"></path><path d="M616.192 562.8416c-3.242667 1.877333-5.888 6.485333-5.888 10.24 0 3.754667 2.645333 5.290667 5.973333 3.413333 3.242667-1.877333 5.888-6.485333 5.888-10.24-0.085333-3.754667-2.730667-5.290667-5.973333-3.413333" fill="#FFFFFF" opacity=".7" p-id="4421"></path><path d="M616.192 593.3056c-3.242667 1.877333-5.888 6.485333-5.888 10.24s2.645333 5.290667 5.973333 3.413333c3.242667-1.877333 5.888-6.485333 5.888-10.24-0.085333-3.754667-2.730667-5.290667-5.973333-3.413333M565.674667 593.220267c-3.242667 1.877333-5.888 6.485333-5.888 10.24 0 3.754667 2.645333 5.290667 5.973333 3.413333 3.242667-1.877333 5.888-6.485333 5.888-10.24 0-3.84-2.645333-5.290667-5.973333-3.413333" fill="#FFFFFF" opacity=".7" p-id="4422"></path><path d="M565.751467 623.616c-3.242667 1.877333-5.888 6.485333-5.888 10.24 0 3.754667 2.645333 5.290667 5.973333 3.413333 3.242667-1.877333 5.888-6.485333 5.888-10.24-0.085333-3.754667-2.730667-5.290667-5.973333-3.413333" fill="#FFFFFF" opacity=".7" p-id="4423"></path><path d="M565.751467 623.616c-3.242667 1.877333-5.888 6.485333-5.888 10.24 0 3.754667 2.645333 5.290667 5.973333 3.413333 3.242667-1.877333 5.888-6.485333 5.888-10.24-0.085333-3.754667-2.730667-5.290667-5.973333-3.413333" fill="#FFFFFF" opacity=".7" p-id="4424"></path><path d="M666.7008 532.565333c-3.242667 1.877333-5.888 6.485333-5.888 10.24 0 3.754667 2.645333 5.290667 5.973333 3.413334 3.242667-1.877333 5.888-6.485333 5.888-10.24-0.085333-3.754667-2.730667-5.290667-5.973333-3.413334" fill="#FFFFFF" opacity=".8" p-id="4425"></path><path d="M666.7008 563.029333c-3.242667 1.877333-5.888 6.485333-5.888 10.24 0 3.754667 2.645333 5.290667 5.973333 3.413334 3.242667-1.877333 5.888-6.485333 5.888-10.24-0.085333-3.754667-2.730667-5.290667-5.973333-3.413334" fill="#FFFFFF" opacity=".7" p-id="4426"></path><path d="M666.7008 563.029333c-3.242667 1.877333-5.888 6.485333-5.888 10.24 0 3.754667 2.645333 5.290667 5.973333 3.413334 3.242667-1.877333 5.888-6.485333 5.888-10.24-0.085333-3.754667-2.730667-5.290667-5.973333-3.413334" fill="#FFFFFF" opacity=".7" p-id="4427"></path><path d="M590.9248 578.048c-3.242667 1.877333-5.888 6.485333-5.888 10.24 0 3.754667 2.645333 5.290667 5.973333 3.413333 3.242667-1.877333 5.888-6.485333 5.888-10.24s-2.645333-5.290667-5.973333-3.413333" fill="#FFFFFF" opacity=".7" p-id="4428"></path><path d="M590.9248 578.048c-3.242667 1.877333-5.888 6.485333-5.888 10.24 0 3.754667 2.645333 5.290667 5.973333 3.413333 3.242667-1.877333 5.888-6.485333 5.888-10.24s-2.645333-5.290667-5.973333-3.413333" fill="#FFFFFF" opacity=".7" p-id="4429"></path><path d="M590.9248 608.512c-3.242667 1.877333-5.888 6.485333-5.888 10.24 0 3.754667 2.645333 5.290667 5.973333 3.413333 3.242667-1.877333 5.888-6.485333 5.888-10.24 0-3.84-2.645333-5.290667-5.973333-3.413333" fill="#FFFFFF" opacity=".8" p-id="4430"></path><path d="M205.986133 448.768v23.722667c0 6.058667 3.242667 11.605333 8.448 14.592a5.6576 5.6576 0 0 0 8.448-4.864v-23.722667c0-6.058667-3.242667-11.605333-8.448-14.592a5.6576 5.6576 0 0 0-8.448 4.864z" fill="#FFFFFF" opacity=".8" p-id="4431"></path><path d="M205.986133 448.768v23.722667c0 6.058667 3.242667 11.605333 8.448 14.592a5.6576 5.6576 0 0 0 8.448-4.864v-23.722667c0-6.058667-3.242667-11.605333-8.448-14.592a5.6576 5.6576 0 0 0-8.448 4.864z" fill="#FFFFFF" opacity=".8" p-id="4432"></path><path d="M205.986133 448.768v23.722667c0 6.058667 3.242667 11.605333 8.448 14.592a5.6576 5.6576 0 0 0 8.448-4.864v-23.722667c0-6.058667-3.242667-11.605333-8.448-14.592a5.6576 5.6576 0 0 0-8.448 4.864z" fill="#FFFFFF" opacity=".8" p-id="4433"></path><path d="M255.650133 477.696v23.722667c0 6.058667 3.242667 11.605333 8.448 14.592a5.6576 5.6576 0 0 0 8.448-4.864v-23.722667c0-6.058667-3.242667-11.605333-8.448-14.592a5.6576 5.6576 0 0 0-8.448 4.864z" fill="#FFFFFF" opacity=".8" p-id="4434"></path><path d="M255.650133 477.696v23.722667c0 6.058667 3.242667 11.605333 8.448 14.592a5.6576 5.6576 0 0 0 8.448-4.864v-23.722667c0-6.058667-3.242667-11.605333-8.448-14.592a5.6576 5.6576 0 0 0-8.448 4.864z" fill="#FFFFFF" opacity=".8" p-id="4435"></path><path d="M255.650133 477.696v23.722667c0 6.058667 3.242667 11.605333 8.448 14.592a5.6576 5.6576 0 0 0 8.448-4.864v-23.722667c0-6.058667-3.242667-11.605333-8.448-14.592a5.6576 5.6576 0 0 0-8.448 4.864z" fill="#FFFFFF" opacity=".8" p-id="4436"></path><path d="M305.2288 506.538667v23.722666c0 6.058667 3.242667 11.605333 8.448 14.592a5.6576 5.6576 0 0 0 8.448-4.864V516.266667c0-6.058667-3.242667-11.605333-8.448-14.592a5.6576 5.6576 0 0 0-8.448 4.864z" fill="#FFFFFF" opacity=".8" p-id="4437"></path><path d="M305.2288 506.538667v23.722666c0 6.058667 3.242667 11.605333 8.448 14.592a5.6576 5.6576 0 0 0 8.448-4.864V516.266667c0-6.058667-3.242667-11.605333-8.448-14.592a5.6576 5.6576 0 0 0-8.448 4.864z" fill="#FFFFFF" opacity=".8" p-id="4438"></path><path d="M305.2288 506.538667v23.722666c0 6.058667 3.242667 11.605333 8.448 14.592a5.6576 5.6576 0 0 0 8.448-4.864V516.266667c0-6.058667-3.242667-11.605333-8.448-14.592a5.6576 5.6576 0 0 0-8.448 4.864z" fill="#FFFFFF" opacity=".8" p-id="4439"></path><path d="M354.8928 535.466667v23.722666c0 6.058667 3.242667 11.605333 8.448 14.592a5.6576 5.6576 0 0 0 8.448-4.864v-23.722666c0-6.058667-3.242667-11.605333-8.448-14.592a5.6576 5.6576 0 0 0-8.448 4.864z" fill="#FFFFFF" opacity=".8" p-id="4440"></path><path d="M354.8928 535.466667v23.722666c0 6.058667 3.242667 11.605333 8.448 14.592a5.6576 5.6576 0 0 0 8.448-4.864v-23.722666c0-6.058667-3.242667-11.605333-8.448-14.592a5.6576 5.6576 0 0 0-8.448 4.864z" fill="#FFFFFF" opacity=".8" p-id="4441"></path><path d="M354.8928 535.466667v23.722666c0 6.058667 3.242667 11.605333 8.448 14.592a5.6576 5.6576 0 0 0 8.448-4.864v-23.722666c0-6.058667-3.242667-11.605333-8.448-14.592a5.6576 5.6576 0 0 0-8.448 4.864z" fill="#FFFFFF" opacity=".8" p-id="4442"></path><path d="M404.5568 564.394667v23.722666c0 6.058667 3.242667 11.605333 8.448 14.592a5.6576 5.6576 0 0 0 8.448-4.864v-23.722666c0-6.058667-3.242667-11.605333-8.448-14.592a5.6576 5.6576 0 0 0-8.448 4.864z" fill="#FFFFFF" opacity=".8" p-id="4443"></path><path d="M404.5568 564.394667v23.722666c0 6.058667 3.242667 11.605333 8.448 14.592a5.6576 5.6576 0 0 0 8.448-4.864v-23.722666c0-6.058667-3.242667-11.605333-8.448-14.592a5.6576 5.6576 0 0 0-8.448 4.864z" fill="#FFFFFF" opacity=".8" p-id="4444"></path><path d="M404.5568 564.394667v23.722666c0 6.058667 3.242667 11.605333 8.448 14.592a5.6576 5.6576 0 0 0 8.448-4.864v-23.722666c0-6.058667-3.242667-11.605333-8.448-14.592a5.6576 5.6576 0 0 0-8.448 4.864z" fill="#FFFFFF" opacity=".8" p-id="4445"></path><path d="M454.135467 593.322667v23.722666c0 6.058667 3.242667 11.605333 8.448 14.592a5.6576 5.6576 0 0 0 8.448-4.864v-23.722666c0-6.058667-3.242667-11.605333-8.448-14.592a5.6576 5.6576 0 0 0-8.448 4.864z" fill="#FFFFFF" opacity=".8" p-id="4446"></path><path d="M454.135467 593.322667v23.722666c0 6.058667 3.242667 11.605333 8.448 14.592a5.6576 5.6576 0 0 0 8.448-4.864v-23.722666c0-6.058667-3.242667-11.605333-8.448-14.592a5.6576 5.6576 0 0 0-8.448 4.864z" fill="#FFFFFF" opacity=".8" p-id="4447"></path><path d="M454.135467 593.322667v23.722666c0 6.058667 3.242667 11.605333 8.448 14.592a5.6576 5.6576 0 0 0 8.448-4.864v-23.722666c0-6.058667-3.242667-11.605333-8.448-14.592a5.6576 5.6576 0 0 0-8.448 4.864z" fill="#FFFFFF" opacity=".8" p-id="4448"></path><path d="M847.872 396.970667L545.877333 572.501333a58.504533 58.504533 0 0 1-58.624 0.085334L183.04 396.970667c-11.690667-6.741333-11.690667-23.637333 0-30.378667l301.994667-175.530667a58.504533 58.504533 0 0 1 58.624-0.085333l304.213333 175.616c11.605333 6.741333 11.605333 23.552 0 30.378667" fill="#56C2E6" p-id="4449"></path><path d="M847.872 396.970667L545.877333 572.501333a58.504533 58.504533 0 0 1-58.624 0.085334L183.04 396.970667c-11.690667-6.741333-11.690667-23.637333 0-30.378667l301.994667-175.530667a58.504533 58.504533 0 0 1 58.624-0.085333l304.213333 175.616c11.605333 6.741333 11.605333 23.552 0 30.378667" fill="#56C2E6" fill-opacity=".12" p-id="4450"></path><path d="M847.872 396.970667L545.877333 572.501333a58.504533 58.504533 0 0 1-58.624 0.085334L183.04 396.970667c-11.690667-6.741333-11.690667-23.637333 0-30.378667l301.994667-175.530667a58.504533 58.504533 0 0 1 58.624-0.085333l304.213333 175.616c11.605333 6.741333 11.605333 23.552 0 30.378667" fill="#56C2E6" fill-opacity=".3" p-id="4451"></path><path d="M170.914133 243.968l-0.256 89.770667c0 12.629333 6.656 24.32 17.664 30.634666l296.618667 171.264a55.688533 55.688533 0 0 0 55.893333-0.085333l294.656-171.264a35.3792 35.3792 0 0 0 17.578667-30.378667l0.256-90.026666-312.149333 181.418666a55.688533 55.688533 0 0 1-55.893334 0.085334l-314.368-181.418667z" fill="#2B83B8" p-id="4452"></path><path d="M814.762667 303.7696c-3.242667 1.877333-5.888 6.485333-5.888 10.24 0 3.754667 2.645333 5.290667 5.973333 3.413333 3.242667-1.877333 5.888-6.485333 5.888-10.24 0-3.84-2.730667-5.376-5.973333-3.413333M814.762667 334.148267c-3.242667 1.877333-5.888 6.485333-5.888 10.24 0 3.754667 2.645333 5.290667 5.973333 3.413333 3.242667-1.877333 5.888-6.485333 5.888-10.24 0-3.754667-2.730667-5.290667-5.973333-3.413333" fill="#FFFFFF" opacity=".7" p-id="4453"></path><path d="M814.762667 334.148267c-3.242667 1.877333-5.888 6.485333-5.888 10.24 0 3.754667 2.645333 5.290667 5.973333 3.413333 3.242667-1.877333 5.888-6.485333 5.888-10.24 0-3.754667-2.730667-5.290667-5.973333-3.413333M789.504 318.8736c-3.242667 1.877333-5.888 6.485333-5.888 10.24s2.645333 5.290667 5.973333 3.413333c3.242667-1.877333 5.888-6.485333 5.888-10.24s-2.645333-5.290667-5.973333-3.413333" fill="#FFFFFF" opacity=".7" p-id="4454"></path><path d="M789.504 318.8736c-3.242667 1.877333-5.888 6.485333-5.888 10.24s2.645333 5.290667 5.973333 3.413333c3.242667-1.877333 5.888-6.485333 5.888-10.24s-2.645333-5.290667-5.973333-3.413333M789.504 349.3376c-3.242667 1.877333-5.888 6.485333-5.888 10.24 0 3.754667 2.645333 5.290667 5.973333 3.413333 3.242667-1.877333 5.888-6.485333 5.888-10.24 0-3.754667-2.645333-5.290667-5.973333-3.413333M764.330667 334.062933c-3.242667 1.877333-5.888 6.485333-5.888 10.24s2.645333 5.290667 5.973333 3.413334c3.242667-1.877333 5.888-6.485333 5.888-10.24-0.085333-3.84-2.730667-5.290667-5.973333-3.413334M764.330667 364.526933c-3.242667 1.877333-5.888 6.485333-5.888 10.24 0 3.754667 2.645333 5.290667 5.973333 3.413334 3.242667-1.877333 5.888-6.485333 5.888-10.24-0.085333-3.84-2.730667-5.376-5.973333-3.413334" fill="#FFFFFF" opacity=".7" p-id="4455"></path><path d="M764.330667 364.526933c-3.242667 1.877333-5.888 6.485333-5.888 10.24 0 3.754667 2.645333 5.290667 5.973333 3.413334 3.242667-1.877333 5.888-6.485333 5.888-10.24-0.085333-3.84-2.730667-5.376-5.973333-3.413334M739.072 349.166933c-3.242667 1.877333-5.888 6.485333-5.888 10.24s2.645333 5.290667 5.973333 3.413334c3.242667-1.877333 5.888-6.485333 5.888-10.24-0.085333-3.754667-2.730667-5.290667-5.973333-3.413334" fill="#FFFFFF" opacity=".7" p-id="4456"></path><path d="M739.072 349.166933c-3.242667 1.877333-5.888 6.485333-5.888 10.24s2.645333 5.290667 5.973333 3.413334c3.242667-1.877333 5.888-6.485333 5.888-10.24-0.085333-3.754667-2.730667-5.290667-5.973333-3.413334M739.072 379.630933c-3.242667 1.877333-5.888 6.485333-5.888 10.24 0 3.754667 2.645333 5.290667 5.973333 3.413334 3.242667-1.877333 5.888-6.485333 5.888-10.24-0.085333-3.754667-2.730667-5.290667-5.973333-3.413334" fill="#FFFFFF" opacity=".7" p-id="4457"></path><path d="M739.072 379.630933c-3.242667 1.877333-5.888 6.485333-5.888 10.24 0 3.754667 2.645333 5.290667 5.973333 3.413334 3.242667-1.877333 5.888-6.485333 5.888-10.24-0.085333-3.754667-2.730667-5.290667-5.973333-3.413334M713.813333 364.356267c-3.242667 1.877333-5.888 6.485333-5.888 10.24s2.645333 5.290667 5.973334 3.413333c3.242667-1.877333 5.888-6.485333 5.888-10.24s-2.730667-5.290667-5.973334-3.413333" fill="#FFFFFF" opacity=".7" p-id="4458"></path><path d="M713.813333 364.356267c-3.242667 1.877333-5.888 6.485333-5.888 10.24s2.645333 5.290667 5.973334 3.413333c3.242667-1.877333 5.888-6.485333 5.888-10.24s-2.730667-5.290667-5.973334-3.413333M713.813333 394.820267c-3.242667 1.877333-5.888 6.485333-5.888 10.24 0 3.754667 2.645333 5.290667 5.973334 3.413333 3.242667-1.877333 5.888-6.485333 5.888-10.24 0-3.754667-2.730667-5.290667-5.973334-3.413333M638.122667 409.838933c-3.242667 1.877333-5.888 6.485333-5.888 10.24s2.645333 5.290667 5.973333 3.413334c3.242667-1.877333 5.888-6.485333 5.888-10.24-0.085333-3.754667-2.730667-5.290667-5.973333-3.413334" fill="#FFFFFF" opacity=".7" p-id="4459"></path><path d="M638.122667 409.838933c-3.242667 1.877333-5.888 6.485333-5.888 10.24s2.645333 5.290667 5.973333 3.413334c3.242667-1.877333 5.888-6.485333 5.888-10.24-0.085333-3.754667-2.730667-5.290667-5.973333-3.413334M638.122667 440.302933c-3.242667 1.877333-5.888 6.485333-5.888 10.24 0 3.754667 2.645333 5.290667 5.973333 3.413334 3.242667-1.877333 5.888-6.485333 5.888-10.24-0.085333-3.84-2.730667-5.290667-5.973333-3.413334M688.554667 379.5456c-3.242667 1.877333-5.888 6.485333-5.888 10.24s2.645333 5.290667 5.973333 3.413333c3.242667-1.877333 5.888-6.485333 5.888-10.24 0-3.84-2.645333-5.376-5.973333-3.413333" fill="#FFFFFF" opacity=".7" p-id="4460"></path><path d="M688.554667 409.924267c-3.242667 1.877333-5.888 6.485333-5.888 10.24s2.645333 5.290667 5.973333 3.413333c3.242667-1.877333 5.888-6.485333 5.888-10.24 0-3.754667-2.645333-5.290667-5.973333-3.413333" fill="#FFFFFF" opacity=".7" p-id="4461"></path><path d="M688.554667 409.924267c-3.242667 1.877333-5.888 6.485333-5.888 10.24s2.645333 5.290667 5.973333 3.413333c3.242667-1.877333 5.888-6.485333 5.888-10.24 0-3.754667-2.645333-5.290667-5.973333-3.413333" fill="#FFFFFF" opacity=".7" p-id="4462"></path><path d="M612.864 424.942933c-3.242667 1.877333-5.888 6.485333-5.888 10.24 0 3.754667 2.645333 5.290667 5.973333 3.413334 3.242667-1.877333 5.888-6.485333 5.888-10.24-0.085333-3.754667-2.730667-5.290667-5.973333-3.413334" fill="#FFFFFF" opacity=".7" p-id="4463"></path><path d="M612.864 424.942933c-3.242667 1.877333-5.888 6.485333-5.888 10.24 0 3.754667 2.645333 5.290667 5.973333 3.413334 3.242667-1.877333 5.888-6.485333 5.888-10.24-0.085333-3.754667-2.730667-5.290667-5.973333-3.413334" fill="#FFFFFF" opacity=".7" p-id="4464"></path><path d="M612.864 455.406933c-3.242667 1.877333-5.888 6.485333-5.888 10.24s2.645333 5.290667 5.973333 3.413334c3.242667-1.877333 5.888-6.485333 5.888-10.24-0.085333-3.754667-2.730667-5.290667-5.973333-3.413334M562.346667 455.3216c-3.242667 1.877333-5.888 6.485333-5.888 10.24 0 3.754667 2.645333 5.290667 5.973333 3.413333 3.242667-1.877333 5.888-6.485333 5.888-10.24 0-3.84-2.645333-5.290667-5.973333-3.413333" fill="#FFFFFF" opacity=".7" p-id="4465"></path><path d="M562.423467 485.717333c-3.242667 1.877333-5.888 6.485333-5.888 10.24 0 3.754667 2.645333 5.290667 5.973333 3.413334 3.242667-1.877333 5.888-6.485333 5.888-10.24-0.085333-3.754667-2.730667-5.290667-5.973333-3.413334" fill="#FFFFFF" opacity=".7" p-id="4466"></path><path d="M562.423467 485.717333c-3.242667 1.877333-5.888 6.485333-5.888 10.24 0 3.754667 2.645333 5.290667 5.973333 3.413334 3.242667-1.877333 5.888-6.485333 5.888-10.24-0.085333-3.754667-2.730667-5.290667-5.973333-3.413334" fill="#FFFFFF" opacity=".7" p-id="4467"></path><path d="M663.3728 394.666667c-3.242667 1.877333-5.888 6.485333-5.888 10.24s2.645333 5.290667 5.973333 3.413333c3.242667-1.877333 5.888-6.485333 5.888-10.24-0.085333-3.754667-2.730667-5.290667-5.973333-3.413333" fill="#FFFFFF" opacity=".8" p-id="4468"></path><path d="M663.3728 425.130667c-3.242667 1.877333-5.888 6.485333-5.888 10.24s2.645333 5.290667 5.973333 3.413333c3.242667-1.877333 5.888-6.485333 5.888-10.24-0.085333-3.754667-2.730667-5.290667-5.973333-3.413333" fill="#FFFFFF" opacity=".7" p-id="4469"></path><path d="M663.3728 425.130667c-3.242667 1.877333-5.888 6.485333-5.888 10.24s2.645333 5.290667 5.973333 3.413333c3.242667-1.877333 5.888-6.485333 5.888-10.24-0.085333-3.754667-2.730667-5.290667-5.973333-3.413333" fill="#FFFFFF" opacity=".7" p-id="4470"></path><path d="M587.5968 440.149333c-3.242667 1.877333-5.888 6.485333-5.888 10.24 0 3.754667 2.645333 5.290667 5.973333 3.413334 3.242667-1.877333 5.888-6.485333 5.888-10.24 0-3.754667-2.645333-5.290667-5.973333-3.413334" fill="#FFFFFF" opacity=".7" p-id="4471"></path><path d="M587.5968 440.149333c-3.242667 1.877333-5.888 6.485333-5.888 10.24 0 3.754667 2.645333 5.290667 5.973333 3.413334 3.242667-1.877333 5.888-6.485333 5.888-10.24 0-3.754667-2.645333-5.290667-5.973333-3.413334" fill="#FFFFFF" opacity=".7" p-id="4472"></path><path d="M587.5968 470.613333c-3.242667 1.877333-5.888 6.485333-5.888 10.24 0 3.754667 2.645333 5.290667 5.973333 3.413334 3.242667-1.877333 5.888-6.485333 5.888-10.24 0-3.84-2.645333-5.290667-5.973333-3.413334" fill="#FFFFFF" opacity=".8" p-id="4473"></path><path d="M202.658133 310.869333v23.722667c0 6.058667 3.242667 11.605333 8.448 14.592a5.6576 5.6576 0 0 0 8.448-4.864v-23.722667c0-6.058667-3.242667-11.605333-8.448-14.592a5.6576 5.6576 0 0 0-8.448 4.864z" fill="#FFFFFF" opacity=".8" p-id="4474"></path><path d="M202.658133 310.869333v23.722667c0 6.058667 3.242667 11.605333 8.448 14.592a5.6576 5.6576 0 0 0 8.448-4.864v-23.722667c0-6.058667-3.242667-11.605333-8.448-14.592a5.6576 5.6576 0 0 0-8.448 4.864z" fill="#FFFFFF" opacity=".8" p-id="4475"></path><path d="M202.658133 310.869333v23.722667c0 6.058667 3.242667 11.605333 8.448 14.592a5.6576 5.6576 0 0 0 8.448-4.864v-23.722667c0-6.058667-3.242667-11.605333-8.448-14.592a5.6576 5.6576 0 0 0-8.448 4.864z" fill="#FFFFFF" opacity=".8" p-id="4476"></path><path d="M252.322133 339.797333v23.722667c0 6.058667 3.242667 11.605333 8.448 14.592a5.6576 5.6576 0 0 0 8.448-4.864v-23.722667c0-6.058667-3.242667-11.605333-8.448-14.592a5.6576 5.6576 0 0 0-8.448 4.864z" fill="#FFFFFF" opacity=".8" p-id="4477"></path><path d="M252.322133 339.797333v23.722667c0 6.058667 3.242667 11.605333 8.448 14.592a5.6576 5.6576 0 0 0 8.448-4.864v-23.722667c0-6.058667-3.242667-11.605333-8.448-14.592a5.6576 5.6576 0 0 0-8.448 4.864z" fill="#FFFFFF" opacity=".8" p-id="4478"></path><path d="M252.322133 339.797333v23.722667c0 6.058667 3.242667 11.605333 8.448 14.592a5.6576 5.6576 0 0 0 8.448-4.864v-23.722667c0-6.058667-3.242667-11.605333-8.448-14.592a5.6576 5.6576 0 0 0-8.448 4.864z" fill="#FFFFFF" opacity=".8" p-id="4479"></path><path d="M301.9008 368.64v23.722667c0 6.058667 3.242667 11.605333 8.448 14.592a5.6576 5.6576 0 0 0 8.448-4.864v-23.722667c0-6.058667-3.242667-11.605333-8.448-14.592a5.6576 5.6576 0 0 0-8.448 4.864z" fill="#FFFFFF" opacity=".8" p-id="4480"></path><path d="M301.9008 368.64v23.722667c0 6.058667 3.242667 11.605333 8.448 14.592a5.6576 5.6576 0 0 0 8.448-4.864v-23.722667c0-6.058667-3.242667-11.605333-8.448-14.592a5.6576 5.6576 0 0 0-8.448 4.864z" fill="#FFFFFF" opacity=".8" p-id="4481"></path><path d="M301.9008 368.64v23.722667c0 6.058667 3.242667 11.605333 8.448 14.592a5.6576 5.6576 0 0 0 8.448-4.864v-23.722667c0-6.058667-3.242667-11.605333-8.448-14.592a5.6576 5.6576 0 0 0-8.448 4.864z" fill="#FFFFFF" opacity=".8" p-id="4482"></path><path d="M351.5648 397.568v23.722667c0 6.058667 3.242667 11.605333 8.448 14.592a5.6576 5.6576 0 0 0 8.448-4.864v-23.722667c0-6.058667-3.242667-11.605333-8.448-14.592a5.6576 5.6576 0 0 0-8.448 4.864z" fill="#FFFFFF" opacity=".8" p-id="4483"></path><path d="M351.5648 397.568v23.722667c0 6.058667 3.242667 11.605333 8.448 14.592a5.6576 5.6576 0 0 0 8.448-4.864v-23.722667c0-6.058667-3.242667-11.605333-8.448-14.592a5.6576 5.6576 0 0 0-8.448 4.864z" fill="#FFFFFF" opacity=".8" p-id="4484"></path><path d="M351.5648 397.568v23.722667c0 6.058667 3.242667 11.605333 8.448 14.592a5.6576 5.6576 0 0 0 8.448-4.864v-23.722667c0-6.058667-3.242667-11.605333-8.448-14.592a5.6576 5.6576 0 0 0-8.448 4.864z" fill="#FFFFFF" opacity=".8" p-id="4485"></path><path d="M401.2288 426.496v23.722667c0 6.058667 3.242667 11.605333 8.448 14.592a5.6576 5.6576 0 0 0 8.448-4.864v-23.722667c0-6.058667-3.242667-11.605333-8.448-14.592a5.6576 5.6576 0 0 0-8.448 4.864z" fill="#FFFFFF" opacity=".8" p-id="4486"></path><path d="M401.2288 426.496v23.722667c0 6.058667 3.242667 11.605333 8.448 14.592a5.6576 5.6576 0 0 0 8.448-4.864v-23.722667c0-6.058667-3.242667-11.605333-8.448-14.592a5.6576 5.6576 0 0 0-8.448 4.864z" fill="#FFFFFF" opacity=".8" p-id="4487"></path><path d="M401.2288 426.496v23.722667c0 6.058667 3.242667 11.605333 8.448 14.592a5.6576 5.6576 0 0 0 8.448-4.864v-23.722667c0-6.058667-3.242667-11.605333-8.448-14.592a5.6576 5.6576 0 0 0-8.448 4.864z" fill="#FFFFFF" opacity=".8" p-id="4488"></path><path d="M450.807467 455.424v23.722667c0 6.058667 3.242667 11.605333 8.448 14.592a5.6576 5.6576 0 0 0 8.448-4.864v-23.722667c0-6.058667-3.242667-11.605333-8.448-14.592a5.6576 5.6576 0 0 0-8.448 4.864z" fill="#FFFFFF" opacity=".8" p-id="4489"></path><path d="M450.807467 455.424v23.722667c0 6.058667 3.242667 11.605333 8.448 14.592a5.6576 5.6576 0 0 0 8.448-4.864v-23.722667c0-6.058667-3.242667-11.605333-8.448-14.592a5.6576 5.6576 0 0 0-8.448 4.864z" fill="#FFFFFF" opacity=".8" p-id="4490"></path><path d="M450.807467 455.424v23.722667c0 6.058667 3.242667 11.605333 8.448 14.592a5.6576 5.6576 0 0 0 8.448-4.864v-23.722667c0-6.058667-3.242667-11.605333-8.448-14.592a5.6576 5.6576 0 0 0-8.448 4.864z" fill="#FFFFFF" opacity=".8" p-id="4491"></path><path d="M844.544 259.072L542.549333 434.602667a58.504533 58.504533 0 0 1-58.624 0.085333L179.712 259.072c-11.690667-6.741333-11.690667-23.637333 0-30.378667L481.706667 53.162667a58.504533 58.504533 0 0 1 58.624-0.085334L844.544 228.693333c11.605333 6.741333 11.605333 23.552 0 30.378667" fill="#56C2E6" p-id="4492"></path><path d="M844.544 259.072L542.549333 434.602667a58.504533 58.504533 0 0 1-58.624 0.085333L179.712 259.072c-11.690667-6.741333-11.690667-23.637333 0-30.378667L481.706667 53.162667a58.504533 58.504533 0 0 1 58.624-0.085334L844.544 228.693333c11.605333 6.741333 11.605333 23.552 0 30.378667" fill="#56C2E6" fill-opacity=".12" p-id="4493"></path><path d="M844.544 259.072L542.549333 434.602667a58.504533 58.504533 0 0 1-58.624 0.085333L179.712 259.072c-11.690667-6.741333-11.690667-23.637333 0-30.378667L481.706667 53.162667a58.504533 58.504533 0 0 1 58.624-0.085334L844.544 228.693333c11.605333 6.741333 11.605333 23.552 0 30.378667" fill="#56C2E6" fill-opacity=".3" p-id="4494"></path></svg>