<?xml version="1.0" standalone="no"?><!DOCTYPE svg PUBLIC "-//W3C//DTD SVG 1.1//EN" "http://www.w3.org/Graphics/SVG/1.1/DTD/svg11.dtd"><svg t="1769162217231" class="icon" viewBox="0 0 1024 1024" version="1.1" xmlns="http://www.w3.org/2000/svg" p-id="8696" xmlns:xlink="http://www.w3.org/1999/xlink" width="200" height="200"><path d="M379.2256 859.0336a6.336 6.336 0 0 1-3.1168-0.832l-219.0144-120.6336a6.432 6.432 0 0 1-3.3024-5.5872v-497.024c0-2.1952 1.1968-4.3008 3.1168-5.4912l291.5648-177.152a6.1952 6.1952 0 0 1 3.296-0.9216c1.1008 0 2.1952 0.2752 3.1168 0.832l221.3056 124.8448c2.0096 1.1008 3.296 3.296 3.296 5.5872v504.448c0 2.2848-1.28 4.3904-3.296 5.5808L382.336 858.208c-1.0048 0.5504-2.112 0.8256-3.1104 0.8256z" fill="#DCDFE6" p-id="8697"></path><path d="M451.7696 57.7152l221.3056 124.8512v504.4416l-293.8496 165.6128-219.0208-120.64v-497.024L451.776 57.7216m0-12.736c-2.2912 0-4.5824 0.64-6.688 1.8368l-291.5584 177.152a12.7168 12.7168 0 0 0-6.144 10.8992v497.024c0 4.672 2.5664 8.9792 6.5984 11.1744l219.0144 120.64c1.92 1.0944 4.032 1.5552 6.144 1.5552 2.1952 0 4.3008-0.5504 6.3168-1.6512l293.9392-165.4272a12.7808 12.7808 0 0 0 6.5088-11.1744V182.656c0-4.576-2.4768-8.8832-6.5088-11.1744L458.0928 46.6304a12.768 12.768 0 0 0-6.3232-1.6448z" fill="#5E6166" p-id="8698"></path><path d="M451.7696 57.7152L160.2048 234.9632l219.0208 119.0784 293.8496-171.3856z" fill="#FFFFFF" p-id="8699"></path><path d="M380.2304 823.8592V354.0416" fill="#B5D6FB" p-id="8700"></path><path d="M379.2256 830.176a6.3744 6.3744 0 0 1-6.4128-6.4128V354.048a6.3744 6.3744 0 0 1 6.4128-6.4128 6.3744 6.3744 0 0 1 6.4064 6.4128v469.8176a6.4704 6.4704 0 0 1-6.4064 6.3168z" fill="#5E6166" p-id="8701"></path><path d="M637.9008 203.1744L379.2256 354.0416" fill="#B5D6FB" p-id="8702"></path><path d="M379.2256 360.3584a6.2336 6.2336 0 0 1-5.504-3.2 6.528 6.528 0 0 1 2.2976-8.7936L634.688 197.4976a6.528 6.528 0 0 1 8.7936 2.2912 6.528 6.528 0 0 1-2.2912 8.7936L382.4256 359.5392c-1.0048 0.5504-2.1056 0.8192-3.2 0.8192z" fill="#5E6166" p-id="8703"></path><path d="M188.0512 250.0736l191.1744 103.968" fill="#B5D6FB" p-id="8704"></path><path d="M379.2256 360.3584c-1.0112 0-2.112-0.2688-3.0272-0.7296l-191.168-103.968c-3.1168-1.6448-4.2112-5.5872-2.56-8.704 1.6448-3.1104 5.5808-4.2112 8.6976-2.56l191.168 103.968c3.1168 1.6448 4.2176 5.5872 2.56 8.704-1.28 2.0992-3.4752 3.2896-5.6704 3.2896z" fill="#5E6166" p-id="8705"></path><path d="M185.12 665.1136l161.5872 90.592" fill="#B5D6FB" p-id="8706"></path><path d="M346.7072 762.1184a6.336 6.336 0 0 1-3.1168-0.8256l-161.5808-90.592a6.3552 6.3552 0 0 1-2.4768-8.704 6.3552 6.3552 0 0 1 8.704-2.4704l161.6768 90.592a6.3552 6.3552 0 0 1 2.4704 8.704c-1.28 2.1056-3.392 3.296-5.6768 3.296z" fill="#5E6166" p-id="8707"></path><path d="M185.12 619.7696l161.5872 90.592" fill="#B5D6FB" p-id="8708"></path><path d="M346.7072 716.7744a6.336 6.336 0 0 1-3.1168-0.8192L182.0096 625.3568a6.3552 6.3552 0 0 1-2.4768-8.704 6.3552 6.3552 0 0 1 8.704-2.4704l161.5808 90.592a6.3552 6.3552 0 0 1 2.4768 8.704 6.3552 6.3552 0 0 1-5.5872 3.296z" fill="#5E6166" p-id="8709"></path><path d="M185.12 574.5216l161.5872 90.592" fill="#B5D6FB" p-id="8710"></path><path d="M346.7072 671.5264a6.336 6.336 0 0 1-3.1168-0.8256L182.0096 580.1088a6.3552 6.3552 0 0 1-2.4768-8.704 6.3552 6.3552 0 0 1 8.704-2.4704l161.5808 90.592a6.3552 6.3552 0 0 1 2.4768 8.704 6.3552 6.3552 0 0 1-5.5872 3.296z" fill="#5E6166" p-id="8711"></path><path d="M152.6976 479.7184l226.528 123.5648" fill="#B5D6FB" p-id="8712"></path><path d="M149.6192 485.344l6.144-11.2576L382.272 597.7152l-6.144 11.2576z" fill="#5E6166" p-id="8713"></path><path d="M308.0512 380.9728l36.7296 18.3168" fill="#B5D6FB" p-id="8714"></path><path d="M344.7808 405.7024a6.1376 6.1376 0 0 1-2.8416-0.64l-36.7296-18.3232c-3.2-1.5552-4.3968-5.4016-2.8416-8.608a6.464 6.464 0 0 1 8.6144-2.8416l36.7296 18.3232c3.2064 1.5552 4.3968 5.4016 2.8416 8.608-1.1008 2.2016-3.392 3.4816-5.7728 3.4816z" fill="#5E6166" p-id="8715"></path><path d="M570.24 966.5472a6.336 6.336 0 0 1-3.1168-0.8256l-219.0144-120.64a6.432 6.432 0 0 1-3.296-5.5808v-497.024c0-2.1952 1.1904-4.3008 3.1104-5.4912l291.5648-177.152a6.1952 6.1952 0 0 1 3.296-0.9216c1.1008 0 2.2016 0.2752 3.1168 0.8256L867.2 284.5888c2.016 1.1008 3.296 3.296 3.296 5.5872v504.4416c0 2.2912-1.28 4.3968-3.296 5.5872l-293.856 165.5168c-1.0048 0.5504-2.1056 0.832-3.1104 0.832z" fill="#DCDFE6" p-id="8716"></path><path d="M642.784 165.2352l221.312 124.8512v504.4352L570.24 960.1344l-219.0144-120.64V342.4832l291.5584-177.2416m0-12.736c-2.2912 0-4.576 0.64-6.688 1.8368l-291.5584 177.152a12.7168 12.7168 0 0 0-6.144 10.8992v497.024c0 4.672 2.5728 8.9728 6.5984 11.1744l219.0208 120.64c1.92 1.0944 4.032 1.5552 6.1312 1.5552 2.2016 0 4.3072-0.5504 6.3232-1.6512l293.9456-165.4272a12.7808 12.7808 0 0 0 6.5024-11.1808V290.176c0-4.5824-2.4704-8.8832-6.5024-11.1744l-221.312-124.8512a12.768 12.768 0 0 0-6.3168-1.6512z" fill="#5E6166" p-id="8717"></path><path d="M642.784 165.2352L351.232 342.4768l219.008 119.0848 293.856-171.392z" fill="#FFFFFF" p-id="8718"></path><path d="M571.2448 931.3792v-469.824" fill="#B5D6FB" p-id="8719"></path><path d="M570.24 937.696a6.3744 6.3744 0 0 1-6.4128-6.4128V461.5616a6.3744 6.3744 0 0 1 6.4128-6.4128 6.3744 6.3744 0 0 1 6.4128 6.4128v469.8112a6.4704 6.4704 0 0 1-6.4128 6.3232z" fill="#5E6166" p-id="8720"></path><path d="M828.9152 310.6944L570.24 461.5616" fill="#B5D6FB" p-id="8721"></path><path d="M570.24 467.8784a6.2336 6.2336 0 0 1-5.4976-3.2 6.528 6.528 0 0 1 2.2912-8.8l258.6752-150.8608a6.528 6.528 0 0 1 8.7936 2.2848 6.528 6.528 0 0 1-2.2912 8.7936L573.4464 467.0528c-1.0112 0.5504-2.112 0.832-3.2064 0.832z" fill="#5E6166" p-id="8722"></path><path d="M379.072 357.5936L570.24 461.5616" fill="#B5D6FB" p-id="8723"></path><path d="M570.24 467.8784c-1.0112 0-2.112-0.2752-3.0272-0.7296l-191.168-103.968c-3.1104-1.6512-4.2112-5.5872-2.56-8.704 1.6448-3.1104 5.5872-4.2112 8.704-2.56l191.168 103.9616c3.1104 1.6512 4.2112 5.5872 2.56 8.704-1.28 2.112-3.4816 3.296-5.6768 3.296z" fill="#5E6166" p-id="8724"></path><path d="M376.1344 772.6336l161.5872 90.592" fill="#B5D6FB" p-id="8725"></path><path d="M537.7216 869.632a6.336 6.336 0 0 1-3.1168-0.8192l-161.5808-90.592a6.3552 6.3552 0 0 1-2.4704-8.704 6.3552 6.3552 0 0 1 8.704-2.4704l161.664 90.592a6.3552 6.3552 0 0 1 2.4768 8.704c-1.28 2.1056-3.392 3.296-5.6768 3.296z" fill="#5E6166" p-id="8726"></path><path d="M376.1344 727.2896l161.5872 90.592" fill="#B5D6FB" p-id="8727"></path><path d="M537.7216 824.2944a6.336 6.336 0 0 1-3.1168-0.8256l-161.5808-90.592a6.3552 6.3552 0 0 1-2.4704-8.704 6.3552 6.3552 0 0 1 8.704-2.4704l161.5744 90.592a6.3552 6.3552 0 0 1 2.4768 8.704 6.3552 6.3552 0 0 1-5.5872 3.296z" fill="#5E6166" p-id="8728"></path><path d="M376.1344 682.0416l161.5872 90.592" fill="#B5D6FB" p-id="8729"></path><path d="M537.7216 779.0464a6.336 6.336 0 0 1-3.1168-0.832l-161.5808-90.5856a6.3552 6.3552 0 0 1-2.4704-8.704 6.3552 6.3552 0 0 1 8.704-2.4704l161.5744 90.592a6.3552 6.3552 0 0 1 2.4768 8.704 6.3552 6.3552 0 0 1-5.5872 3.296z" fill="#5E6166" p-id="8730"></path><path d="M343.712 587.2384L570.24 710.8032" fill="#B5D6FB" p-id="8731"></path><path d="M340.64 592.864l6.144-11.264 226.5024 123.6288-6.144 11.264z" fill="#5E6166" p-id="8732"></path><path d="M499.072 488.4928l36.7232 18.3168" fill="#B5D6FB" p-id="8733"></path><path d="M535.7952 513.216a6.1376 6.1376 0 0 1-2.8352-0.64l-36.736-18.3168c-3.2-1.5552-4.3968-5.4016-2.8352-8.608a6.464 6.464 0 0 1 8.608-2.8416l36.736 18.3232c3.2 1.5552 4.3904 5.4016 2.8352 8.608-1.1008 2.1952-3.392 3.4816-5.7728 3.4816z" fill="#5E6166" p-id="8734"></path></svg>